<?xml version="1.0" encoding="UTF-8" standalone="no"?>
<!-- Created with Inkscape (http://www.inkscape.org/) -->

<svg
   xmlns:dc="http://purl.org/dc/elements/1.1/"
   xmlns:cc="http://creativecommons.org/ns#"
   xmlns:rdf="http://www.w3.org/1999/02/22-rdf-syntax-ns#"
   xmlns:svg="http://www.w3.org/2000/svg"
   xmlns="http://www.w3.org/2000/svg"
   xmlns:xlink="http://www.w3.org/1999/xlink"
   xmlns:sodipodi="http://sodipodi.sourceforge.net/DTD/sodipodi-0.dtd"
   xmlns:inkscape="http://www.inkscape.org/namespaces/inkscape"
   id="svg2"
   version="1.1"
   inkscape:version="0.47 r22583"
   width="300"
   height="155"
   sodipodi:docname="C4KzA.png"
   style="display:inline">
  <metadata
     id="metadata8">
    <rdf:RDF>
      <cc:Work
         rdf:about="">
        <dc:format>image/svg+xml</dc:format>
        <dc:type
           rdf:resource="http://purl.org/dc/dcmitype/StillImage" />
        <dc:title></dc:title>
      </cc:Work>
    </rdf:RDF>
  </metadata>
  <defs
     id="defs6">
    <inkscape:perspective
       sodipodi:type="inkscape:persp3d"
       inkscape:vp_x="0 : 0.5 : 1"
       inkscape:vp_y="0 : 1000 : 0"
       inkscape:vp_z="1 : 0.5 : 1"
       inkscape:persp3d-origin="0.5 : 0.33333333 : 1"
       id="perspective10" />
  </defs>
  <sodipodi:namedview
     pagecolor="#ffffff"
     bordercolor="#666666"
     borderopacity="1"
     objecttolerance="10"
     gridtolerance="10"
     guidetolerance="10"
     inkscape:pageopacity="0"
     inkscape:pageshadow="2"
     inkscape:window-width="1916"
     inkscape:window-height="1050"
     id="namedview4"
     showgrid="false"
     inkscape:zoom="4.3065084"
     inkscape:cx="152.74964"
     inkscape:cy="76.242508"
     inkscape:window-x="1600"
     inkscape:window-y="26"
     inkscape:window-maximized="0"
     inkscape:current-layer="layer3" />
  <g
     inkscape:groupmode="layer"
     id="layer2"
     inkscape:label="original"
     style="display:none">
    <image
       xlink:href="/home/dmwit/dump/dump/C4KzA.png"
       width="300"
       height="155"
       id="image12"
       x="0"
       y="0"
       sodipodi:absref="/home/dmwit/dump/dump/C4KzA.png" />
  </g>
  <g
     inkscape:groupmode="layer"
     id="layer3"
     inkscape:label="tracing"
     style="display:inline">
    <path
       style="fill:#b70000;fill-opacity:1;stroke:none"
       d="m 125.6875,4.09375 c -14.48708,0 -25.13514,2.650336 -33.03125,2.75 -0.543294,-0.9410127 -1.759027,-1.625 -2.90625,-1.625 -2.020091,0 -3.375,1.8284987 -3.375,4.3125 0,1.363091 0.214996,1.65625 1.4375,1.65625 0,2.11615 0.5,2.997226 0.5,7.59375 0,3.630553 -3.610804,12.478118 -8.875,14.03125 -5.072532,-6.369197 -10.13374,-11.84375 -18.90625,-11.84375 -13.862656,0 -23.151741,19.771527 -22.71875,35.75 0.07825,2.908411 -0.546308,6.284639 -0.84375,7.59375 -0.639479,2.814498 -2.083461,5.386914 -3.21875,7.3125 -1.022419,1.734142 -1.757425,2.867624 -3.09375,3.65625 -1.336325,0.788626 -4.264943,1.06415 -6.1875,1.09375 C 23.436047,72.820438 25.066436,67.288322 26.125,65 c 1.679522,-3.630662 2.999734,-6.952509 3.28125,-9.65625 -1.548018,1.199771 -2.639176,2.529275 -3.9375,4.53125 -2.038086,3.142666 -4.107625,7.323732 -4.875,9.3125 -0.831682,2.155427 -1.665342,5.469699 -1.9375,7.625 -2.525337,0.10285 -3.929639,0.2183 -6.34375,0.25 0.40845,-4.90729 0.229868,-6.644852 2.21875,-11.1875 1.267982,-2.8961 2.04293,-4.937975 2.0625,-7.96875 -2.312045,1.554797 -5.30747,5.480757 -6.15625,7.84375 -1.3795154,3.840552 -0.9478842,7.801723 -1.125,12.125 -0.1691856,4.129708 -2.4736011,7.892938 -3.625,12.40625 -0.9128053,3.578061 -1.3348553,7.112149 -1.28125,11.25 0.059178,4.568 0.8927882,9.11345 1.78125,13.28125 1.3014107,6.10495 2.8271925,10.91846 4.78125,15.78125 1.472261,3.66381 2.764325,3.79179 3,0.59375 0.235675,-3.19805 -1.639327,-21.82942 0.65625,-24.125 1.003749,-1.00375 1.625,-1.11382 1.625,-1.96875 0,-1.52632 -1.676391,-0.45574 -1.8125,-1.15625 -0.1796,-0.92435 -0.367625,-2.4089 1.65625,-2.3125 2.023876,0.0964 4.703935,-1.44232 3.125,-3.75 -1.067267,-1.559853 -1.147145,-6.924491 0.71875,-7.65625 1.317258,-0.516596 0.0908,-7.3125 2.0625,-7.3125 1.735346,0 1.504605,2.688164 0.8125,5.09375 -0.501443,1.742889 -0.667332,3.80423 0.65625,3.78125 1.946314,-0.03379 1.745726,6.257486 2.46875,9.03125 1.479571,5.67613 4.597457,6.55933 4.84375,10.5 0.21533,3.44528 -2.184953,6.06488 -3.59375,8.5625 -1.326405,2.35155 -2.175768,7.45689 -2.03125,10.90625 0.129121,3.08185 0.760288,2.3302 1.4375,0.34375 1.124235,-3.2977 5.428496,-12.91949 6.90625,-15.875 1.477754,-2.95551 2.365444,-9.59711 -0.5,-13.28125 C 30.126589,98.274367 30.753308,93.592124 34.65625,90.8125 37.773507,88.59243 43.276406,82.168767 45,78.90625 47.298728,74.555086 47.787932,69.618525 48.09375,65.03125 48.42214,60.105403 51.324682,44 60.4375,44 c 10.263629,0 15.75,11.50348 15.75,26.28125 0,14.129352 -8.46875,30.66739 -8.46875,45.96875 0,2.38224 1.25,5.90625 1.25,5.90625 0,0 -5.833156,-1.96875 -9.28125,-1.96875 -3.448093,0 -3.03737,1.05688 -3.125,5 -0.164195,7.38877 6.8125,12.91155 6.8125,16.03125 0,2.62712 -1.37059,2.78125 -4.5,2.78125 -7.060382,0 -10.595872,-4.1875 -17,-4.1875 -6.241568,0 -13.774384,10.5522 -14.78125,12.15625 -0.611745,0.97458 0.791624,1.50433 2.78125,0.40625 2.194317,-1.21105 7.359353,-7.46669 9.03125,-5.90625 1.231462,1.14937 -6.504854,6.09039 -5.09375,7.21875 0.960457,0.76801 12.997606,-8.55769 14.96875,-7.375 1.17722,0.70633 -0.937584,2.0851 -1.9375,3.75 -0.902005,1.50188 0.594768,1.57302 1.4375,0.65625 2.569342,-2.79508 12.562479,-3.7587 20.6875,-4.09375 7.963454,-0.32839 10.34375,-1.05122 10.34375,-2.375 0,-1.48685 -0.75,-0.57831 -0.75,-1.8125 0,-1.31356 0.7573,-1.21472 2.125,-1.40625 1.643619,3.85036 2.235462,3.625 19.3125,3.625 18.22703,0 43.5,-6.07536 43.5,-15.75 0,-7.74441 -12.3125,-9.02384 -12.3125,-15.28125 0,-3.44809 3.60097,-4.09375 9.1875,-4.09375 10.18008,0 19.38612,11.8125 24.96875,11.8125 6.41202,0 16.86662,-4.59375 23.3125,-4.59375 4.34606,0 10.5,0.96875 10.5,0.96875 0,0 -7.86387,-3.9375 -11.96875,-3.9375 -4.10487,0 -11.82419,2.46875 -18.5625,2.46875 -4.10815,0 -6.0662,-2.45868 -11.15625,-5.25 -5.09004,-2.79131 -12.30561,-7.71875 -20.84375,-7.71875 -7.8882,0 -23.16447,0.60897 -23.34375,7.0625 -0.19626,7.06528 9.6875,5.09693 9.6875,10.84375 0,2.96007 -2.6015,4.09375 -10.15625,4.09375 -12.31462,0 -19.710805,-7.54185 -19.875,-13.78125 -0.133972,-5.09093 2.28125,-2.96372 2.28125,-25.625 0,-23.516587 -6.745426,-37.344689 -11.96875,-45.65625 3.72396,-4.51548 6.899364,-9.351695 15.4375,-9.1875 8.53814,0.164195 13.625,5.59375 13.625,5.59375 0,0 -0.64778,-8.21875 8.21875,-8.21875 11.49364,0 32.83879,12.702046 44.65625,20.1875 -2.79946,-4.848812 -2.96875,-7.356954 -2.96875,-10.65625 0,-5.428375 3.28364,-7.40625 10.84375,-7.40625 27.09216,0 47.46141,10.857703 60.46875,22.375 C 226.30108,22.164248 170.91877,4.09375 125.6875,4.09375 z m 0.625,4.375 c 32.7495,0 74.3673,14.685098 84.65625,24.375 -19.61554,-6.979527 -25.21062,-6.5 -38.5625,-6.5 -13.47086,0 -13.78867,6.722511 -13.46875,13.46875 -8.5326,-6.052545 -24.60453,-14.84375 -34.125,-14.84375 -9.52048,0 -13.30194,2.532852 -14.5,6.5 C 106.31383,28.17184 97.967557,28.324016 94.15625,28.4375 97.035965,23.063486 99.246915,16.150177 99.5,11.96875 c 5.53634,-1.658292 17.73483,-3.5 26.8125,-3.5 z M 12.5,87.96875 c 0.659522,0.01421 1.246629,0.439292 1.625,1.0625 0.491383,0.809288 0.03029,1.529716 0,2.34375 -0.03671,0.986487 0.07888,1.690877 -0.1875,2.78125 -0.236741,0.969039 -0.484214,1.2612 -1.78125,1.25 -1.005003,-0.0087 -1.35182,-1.299273 -1.4375,-3.21875 -0.06797,-1.522656 -0.580078,-2.815349 0.5625,-3.75 0.405975,-0.332096 0.823037,-0.477277 1.21875,-0.46875 z"
       id="path3615" />
  </g>
  <g
     inkscape:groupmode="layer"
     id="layer1"
     inkscape:label="text"
     style="display:inline">
    <text
       xml:space="preserve"
       style="font-size:40px;font-style:normal;font-weight:normal;fill:#b70000;fill-opacity:1;stroke:none;font-family:Bitstream Vera Sans"
       x="100.48729"
       y="91.94915"
       id="text3648"><tspan
         sodipodi:role="line"
         id="tspan3650"
         x="100.48729"
         y="91.94915"
         style="font-size:88px;font-style:normal;font-variant:normal;font-weight:normal;font-stretch:normal;fill:#b70000;fill-opacity:1;font-family:'It wasn\'t me';-inkscape-font-specification:'It wasn\'t me'">W</tspan></text>
    <text
       xml:space="preserve"
       style="font-size:40px;font-style:normal;font-weight:normal;fill:#000000;fill-opacity:1;stroke:none;font-family:Bitstream Vera Sans"
       x="149.26854"
       y="91.94915"
       id="text3655"><tspan
         sodipodi:role="line"
         id="tspan3657"
         x="149.26854"
         y="91.94915"
         style="font-size:56px;font-style:normal;font-variant:normal;font-weight:normal;font-stretch:normal;font-family:'It wasn\'t me';-inkscape-font-specification:'It wasn\'t me'">y v e r n</tspan></text>
    <text
       xml:space="preserve"
       style="font-size:40px;font-style:normal;font-weight:normal;fill:none;stroke:none;font-family:Bitstream Vera Sans"
       x="100.48729"
       y="91.94915"
       id="text2818"><tspan
         sodipodi:role="line"
         id="tspan2820"
         x="100.48729"
         y="91.94915"
         style="font-size:64px;font-style:normal;font-variant:normal;font-weight:normal;font-stretch:normal;fill:none;font-family:'It wasn\'t me';-inkscape-font-specification:'It wasn\'t me'"><tspan
           style="font-size:88px;fill:none"
           id="tspan2822">W</tspan><tspan
           style="font-size:56px;fill:none"
           id="tspan3646"> y v e r n</tspan></tspan></text>
  </g>
</svg>
